# xmcd
#
# Track frame offsets:
#	150
#	12974
#	33950
#	49044
#	67348
#	81259
#	100270
#	115187
#	130544
#	145049
#	164430
#	182818
#	197331
#	214720
#	234203
#	248924
#	265539
#	283508
#	298599
#	314505
#	331663
#
# Disc length: 4650 seconds
#
# Revision: 1
# Processed by: cddbd v1.5.2PL0 Copyright (c) Steve Scherf et al.
# Submitted via: audiograbber 1.83.01
#
DISCID=24122815
DTITLE=Glenn Erickson - Diamondback Records Compilation 9
DYEAR=2014
DGENRE=
TTITLE0=Texas Tea -B Jeff Stone
TTITLE1=Theres No Gettin Over You -Marcella Tambouris
TTITLE2=Wehere Are The Heroes -Rex Allen Jr
TTITLE3=You Raise The Bottle -Katherine Archer
TTITLE4=Don´t Be Angry -Noel Parlane
TTITLE5=Cody´s Back In Texas -Pecos Red
TTITLE6=I Can´t Belive My Lies -Trevor Stevens
TTITLE7=Elvis Country -Terry Gorka
TTITLE8=The Distance Between Us -Mitch Sno
TTITLE9=Deep In The West -Rex Allen Jr
TTITLE10=The Why Waltz -William Roldan
TTITLE11=Margarita -Dave Parks
TTITLE12=Little While Longer -Morgan Lawson
TTITLE13=Crackin  Pecans -Crawford Boyd
TTITLE14=Gold Star In The Window -Glenn Erickson
TTITLE15=Seven Spanish Angles -Hunting Lady Kate
TTITLE16=Memories Become Treasures Of Gold -Ray Barnett
TTITLE17=I Feel Lucky -Ann Pascoe
TTITLE18=The Turkey and The Sheriff
TTITLE19=One More Day -Walter Walsh
TTITLE20=Don´t Forget To Remember -Hermann Lammers Meyer
EXTD=
EXTT0=
EXTT1=
EXTT2=
EXTT3=
EXTT4=
EXTT5=
EXTT6=
EXTT7=
EXTT8=
EXTT9=
EXTT10=
EXTT11=
EXTT12=
EXTT13=
EXTT14=
EXTT15=
EXTT16=
EXTT17=
EXTT18=
EXTT19=
EXTT20=
PLAYORDER=
